<svg xmlns="http://www.w3.org/2000/svg" viewBox="0 0 64 64" width="64" height="64" role="img" aria-label="mini-lab">
  <style>
    .trace { stroke: #151A2D; }
    @media (prefers-color-scheme: dark) { .trace { stroke: #E8EAF3; } }
  </style>
  <!-- a chip wired out like a neural net: two traces a side, each ending on a via -->
  <g fill="none" stroke-width="2.2">
    <g transform="rotate(0 32 32)"><path d="M28.5 26V16.5L24.9 12.9" stroke-linejoin="round" class="trace"/><path d="M35.5 26V13.9" class="trace"/><circle cx="22.5" cy="10.5" r="2.3" stroke="#C4236A"/><circle cx="35.5" cy="10.5" r="2.3" stroke="#C4236A"/></g>
    <g transform="rotate(90 32 32)"><path d="M28.5 26V16.5L24.9 12.9" stroke-linejoin="round" class="trace"/><path d="M35.5 26V13.9" class="trace"/><circle cx="22.5" cy="10.5" r="2.3" stroke="#C4236A"/><circle cx="35.5" cy="10.5" r="2.3" stroke="#C4236A"/></g>
    <g transform="rotate(180 32 32)"><path d="M28.5 26V16.5L24.9 12.9" stroke-linejoin="round" class="trace"/><path d="M35.5 26V13.9" class="trace"/><circle cx="22.5" cy="10.5" r="2.3" stroke="#C4236A"/><circle cx="35.5" cy="10.5" r="2.3" stroke="#C4236A"/></g>
    <g transform="rotate(270 32 32)"><path d="M28.5 26V16.5L24.9 12.9" stroke-linejoin="round" class="trace"/><path d="M35.5 26V13.9" class="trace"/><circle cx="22.5" cy="10.5" r="2.3" stroke="#C4236A"/><circle cx="35.5" cy="10.5" r="2.3" stroke="#C4236A"/></g>
  </g>
  <rect x="22" y="22" width="20" height="20" rx="4.5" fill="#C4236A"/>
  <rect x="28" y="28" width="8" height="8" rx="1.8" fill="#F4A6C8"/>
</svg>
